<svg width="22" height="22" viewBox="0 0 22 22" fill="none" xmlns="http://www.w3.org/2000/svg">
<path fill-rule="evenodd" clip-rule="evenodd" d="M14.8308 6.97114C15.0932 7.12425 15.1817 7.46105 15.0286 7.72339L11.2264 14.2381C11.1439 14.3798 11.0317 14.5024 10.8978 14.5969C10.7647 14.6908 10.6132 14.7552 10.4532 14.7857C10.2915 14.8178 10.1246 14.8137 9.96453 14.7737C9.80475 14.7337 9.65578 14.659 9.52825 14.5548L7.10233 12.6141C6.86513 12.4243 6.82668 12.0782 7.01643 11.841C7.20619 11.6038 7.5523 11.5654 7.78949 11.7551L10.224 13.7028C10.2262 13.7045 10.2286 13.7058 10.2313 13.7065C10.234 13.7072 10.2368 13.7072 10.2395 13.7067L10.2468 13.7052C10.2528 13.7041 10.2584 13.7018 10.2634 13.6983C10.2684 13.6948 10.2725 13.6902 10.2756 13.685L14.0786 7.16892C14.2317 6.90657 14.5685 6.81802 14.8308 6.97114Z" fill="#212121"/>
<path fill-rule="evenodd" clip-rule="evenodd" d="M10.9998 3.85C7.05092 3.85 3.84976 7.05116 3.84976 11C3.84976 14.9488 7.05092 18.15 10.9998 18.15C14.9486 18.15 18.1498 14.9488 18.1498 11C18.1498 7.05116 14.9486 3.85 10.9998 3.85ZM2.74976 11C2.74976 6.44365 6.44341 2.75 10.9998 2.75C15.5561 2.75 19.2498 6.44365 19.2498 11C19.2498 15.5563 15.5561 19.25 10.9998 19.25C6.44341 19.25 2.74976 15.5563 2.74976 11Z" fill="#212121"/>
</svg>
